<mxfile host="app.diagrams.net" modified="2024-06-10T15:01:24.386Z" agent="Mozilla/5.0 (X11; Linux x86_64; rv:109.0) Gecko/20100101 Firefox/115.0" version="24.4.0" etag="emKvRAhBlC-leNXVrD0x" type="github">
  <diagram name="PÃ¡gina-1" id="OMGLSZ7zkLzmsqoUvhkR">
    <mxGraphModel>
      <root>
        <mxCell id="0" />
        <mxCell id="1" parent="0" />
      </root>
    </mxGraphModel>
  </diagram>
</mxfile>
